HIERARCHY
ROOT Hips
{
	OFFSET -0.001795 -0.223333 0.028219
	CHANNELS 6 Xposition Yposition Zposition Zrotation Yrotation Xrotation 
	JOINT LeftUpLeg
	{
		OFFSET 0.069520 -0.091406 -0.006815
		CHANNELS 3 Zrotation Yrotation Xrotation
		JOINT LeftLeg
		{
			OFFSET 0.034277 -0.375199 -0.004496
			CHANNELS 3 Zrotation Yrotation Xrotation
			JOINT LeftFoot
			{
				OFFSET -0.013596 -0.397961 -0.043693
				CHANNELS 3 Zrotation Yrotation Xrotation
				JOINT LeftToe
				{
					OFFSET 0.026358 -0.055791 0.119288
					CHANNELS 3 Zrotation Yrotation Xrotation
					End Site
					{
						OFFSET 0.000000 0.000000 0.000000
					}
				}
			}
		}
	}
	JOINT RightUpLeg
	{
		OFFSET -0.067670 -0.090522 -0.004320
		CHANNELS 3 Zrotation Yrotation Xrotation
		JOINT RightLeg
		{
			OFFSET -0.038290 -0.382569 -0.008850
			CHANNELS 3 Zrotation Yrotation Xrotation
			JOINT RightFoot
			{
				OFFSET 0.015774 -0.398415 -0.042312
				CHANNELS 3 Zrotation Yrotation Xrotation
				JOINT RightToe
				{
					OFFSET -0.025372 -0.048144 0.123348
					CHANNELS 3 Zrotation Yrotation Xrotation
					End Site
					{
						OFFSET 0.000000 0.000000 0.000000
					}
				}
			}
		}
	}
	JOINT Spine
	{
		OFFSET -0.002533 0.108963 -0.026696
		CHANNELS 3 Zrotation Yrotation Xrotation
		JOINT Spine1
		{
			OFFSET 0.005487 0.135180 0.001092
			CHANNELS 3 Zrotation Yrotation Xrotation
			JOINT Spine2
			{
				OFFSET 0.001457 0.052922 0.025425
				CHANNELS 3 Zrotation Yrotation Xrotation
				JOINT Neck
				{
					OFFSET -0.002778 0.213870 -0.042857
					CHANNELS 3 Zrotation Yrotation Xrotation
					JOINT Head
					{
						OFFSET 0.005152 0.064970 0.051349
						CHANNELS 3 Zrotation Yrotation Xrotation
						End Site
						{
							OFFSET 0.000000 0.000000 0.000000
						}
					}
				}
				JOINT LeftShoulder
				{
					OFFSET 0.078845 0.121749 -0.034090
					CHANNELS 3 Zrotation Yrotation Xrotation
					JOINT LeftArm
					{
						OFFSET 0.090977 0.030469 -0.008868
						CHANNELS 3 Zrotation Yrotation Xrotation
						JOINT LeftForeArm
						{
							OFFSET 0.259612 -0.012772 -0.027456
							CHANNELS 3 Zrotation Yrotation Xrotation
							JOINT LeftHand
							{
								OFFSET 0.249234 0.008986 -0.001171
								CHANNELS 3 Zrotation Yrotation Xrotation
								End Site
								{
									OFFSET 0.000000 0.000000 0.000000
								}
							}
						}
					}
				}
				JOINT RightShoulder
				{
					OFFSET -0.081759 0.118833 -0.038615
					CHANNELS 3 Zrotation Yrotation Xrotation
					JOINT RightArm
					{
						OFFSET -0.096012 0.032551 -0.009143
						CHANNELS 3 Zrotation Yrotation Xrotation
						JOINT RightForeArm
						{
							OFFSET -0.253742 -0.013329 -0.021401
							CHANNELS 3 Zrotation Yrotation Xrotation
							JOINT RightHand
							{
								OFFSET -0.255298 0.007772 -0.005559
								CHANNELS 3 Zrotation Yrotation Xrotation
								End Site
								{
									OFFSET 0.000000 0.000000 0.000000
								}
							}
						}
					}
				}
			}
		}
	}
}
MOTION
Frames: 13
Frame Time: 0.050000
0.000000 0.922454 0.000000 -1.568431 -3.805171 -4.051909 -1.551350 -0.935466 -8.994182 -7.532700 1.902778 22.529715 1.503760 3.713404 1.487361 0.000000 0.000000 0.000000 -1.520986 1.597314 -17.036231 1.772918 2.047461 47.767452 -2.337836 -5.721824 -0.430081 0.000000 0.000000 0.000000 5.122124 -1.104523 13.863606 -5.733984 2.010821 -22.416406 -2.040126 6.128501 28.436404 10.834577 -3.574738 -29.392536 0.000000 0.000000 0.000000 -16.995405 -11.669727 4.292466 -49.972359 -7.417277 -5.213258 -32.976768 -64.048791 24.560526 0.000000 0.000000 0.000000 23.016607 0.454592 0.188979 58.770691 9.027654 -4.213237 27.077572 59.370751 20.901272 0.000000 0.000000 0.000000 
-0.000022 0.919198 0.001269 -1.556083 -4.259229 -4.531834 -0.881332 -0.832163 -8.479305 -8.740300 2.357939 22.722590 1.721668 3.870879 0.623230 0.000000 0.000000 0.000000 -0.964649 1.736149 -17.583972 1.853206 2.361295 51.107803 -2.448529 -6.996154 2.153018 0.000000 0.000000 0.000000 5.636745 -1.142685 13.834453 -6.671011 2.251451 -22.581441 -2.126196 6.110262 29.655600 10.646646 -3.525128 -29.624317 0.000000 0.000000 0.000000 -16.684087 -12.119683 4.643273 -50.629904 -8.245083 -5.103201 -32.106174 -64.622927 24.507554 0.000000 0.000000 0.000000 23.304612 0.000958 -0.089594 59.618601 8.143567 -4.864684 31.522420 59.406292 23.856182 0.000000 0.000000 0.000000 
-0.000028 0.915904 0.002607 -1.110356 -4.297397 -4.875282 -1.772794 -0.917056 -8.595104 -8.185969 2.246848 23.749512 2.009874 4.191612 -0.236334 0.000000 0.000000 0.000000 -1.109139 1.703591 -17.462183 1.940090 2.400010 51.991332 -3.028494 -7.765128 0.442009 0.000000 0.000000 0.000000 6.121262 -1.163827 13.560920 -7.644084 2.552502 -21.725409 -2.038475 5.895100 29.700551 9.951450 -3.317422 -28.923603 0.000000 0.000000 0.000000 -17.958752 -12.856251 5.115824 -48.749566 -8.962462 -4.672433 -29.163653 -64.144493 22.279730 0.000000 0.000000 0.000000 24.966775 0.210408 -0.086990 57.727828 8.242196 -4.819705 30.375193 58.289784 22.387553 0.000000 0.000000 0.000000 
-0.000001 0.915401 0.003917 -0.753238 -4.895383 -5.725339 -2.728893 -0.938476 -8.037853 -7.358202 2.069729 24.517903 2.336752 4.926784 -0.118620 0.000000 0.000000 0.000000 -1.157009 1.689368 -17.278847 1.884081 2.773747 53.709332 -3.022018 -8.063139 1.345131 0.000000 0.000000 0.000000 6.319445 -1.180197 13.859006 -7.884239 2.616797 -21.768387 -2.473434 6.392397 30.671395 9.928158 -3.394615 -28.459742 0.000000 0.000000 0.000000 -17.856617 -12.985537 5.185893 -48.961297 -8.709513 -4.882981 -27.003884 -65.327207 21.388660 0.000000 0.000000 0.000000 25.540265 -0.212448 -0.280767 57.592679 8.287800 -4.939873 33.652975 58.766683 24.790174 0.000000 0.000000 0.000000 
0.000048 0.915282 0.005057 -0.586415 -5.596549 -6.012200 -2.956723 -0.978178 -8.207447 -7.340799 2.194878 25.384875 2.572145 5.579730 0.421283 0.000000 0.000000 0.000000 -0.964103 1.694210 -16.962689 2.119555 2.877951 53.979780 -3.636008 -9.720204 1.993301 0.000000 0.000000 0.000000 6.092478 -1.170157 14.299729 -7.709916 2.564729 -21.662511 -2.419216 6.645271 30.620348 10.098873 -3.661475 -27.710273 0.000000 0.000000 0.000000 -18.266218 -13.283290 5.410066 -48.916672 -8.466927 -4.981230 -25.395089 -65.521774 20.442085 0.000000 0.000000 0.000000 25.853879 -0.096543 -0.297944 57.406396 7.973711 -5.076367 33.622670 59.136735 24.873869 0.000000 0.000000 0.000000 
0.000100 0.916609 0.005947 -0.681905 -5.654131 -6.060270 -3.030718 -0.980833 -8.177513 -7.042870 2.099301 25.516885 2.540422 5.644622 0.893508 0.000000 0.000000 0.000000 -0.935232 1.743765 -17.361617 2.622725 2.636728 54.804781 -3.663301 -9.920951 2.450482 0.000000 0.000000 0.000000 6.387590 -1.234865 14.714733 -7.745538 2.563098 -21.946636 -2.614253 6.346632 30.764200 9.927367 -3.641883 -27.565931 0.000000 0.000000 0.000000 -18.048566 -12.985786 5.334691 -49.054229 -8.269798 -5.109042 -26.695558 -65.130408 21.263674 0.000000 0.000000 0.000000 26.064150 0.042763 -0.327166 57.516291 7.712017 -5.200748 33.569974 59.199118 24.793157 0.000000 0.000000 0.000000 
0.000133 0.918241 0.006528 -0.668578 -6.040439 -5.856164 -3.054864 -0.986430 -8.221441 -7.024720 2.114787 25.210928 2.596779 5.907745 1.450294 0.000000 0.000000 0.000000 -0.847831 1.845635 -18.080096 3.246526 2.413985 55.585444 -3.732822 -10.374095 3.439863 0.000000 0.000000 0.000000 6.459687 -1.259144 14.957448 -7.656475 2.522618 -22.028465 -2.671838 6.083090 30.717321 9.963571 -3.770923 -27.454159 0.000000 0.000000 0.000000 -17.863751 -12.492751 5.204283 -48.996200 -7.561160 -5.412752 -29.227387 -65.207541 23.131367 0.000000 0.000000 0.000000 26.186516 -0.228834 -0.689901 57.512442 7.501214 -5.262931 34.964419 59.712151 25.793329 0.000000 0.000000 0.000000 
0.000090 0.919121 0.006992 -0.743521 -6.269285 -5.447114 -2.801439 -1.016326 -8.706372 -7.277841 2.235236 25.277668 2.597855 6.022899 1.903186 0.000000 0.000000 0.000000 -0.733446 1.984823 -19.087494 3.823309 2.155592 56.361207 -3.807230 -10.768036 4.239059 0.000000 0.000000 0.000000 6.594069 -1.283702 15.025871 -7.422348 2.449912 -21.995031 -2.897825 5.810455 30.742655 9.568993 -3.611119 -27.415334 0.000000 0.000000 0.000000 -17.626822 -11.912214 5.007046 -48.582788 -7.095871 -5.585535 -32.985098 -65.407619 25.883517 0.000000 0.000000 0.000000 26.111952 -0.363451 -0.927272 57.544544 7.347293 -5.303415 36.081840 60.402563 26.750684 0.000000 0.000000 0.000000 
0.000057 0.918922 0.007349 -0.577501 -6.618951 -5.237081 -2.864958 -1.066828 -9.132776 -7.482227 2.371103 25.566778 2.710847 6.312212 2.175899 0.000000 0.000000 0.000000 -0.685993 2.108540 -19.987235 4.141290 2.128422 57.269881 -3.734225 -10.751838 4.728816 0.000000 0.000000 0.000000 6.577904 -1.298615 15.294595 -7.504167 2.464156 -21.988864 -2.937036 5.674001 30.730065 9.275434 -3.460927 -27.646829 0.000000 0.000000 0.000000 -17.184933 -11.634019 4.937243 -48.200165 -6.680134 -5.728940 -35.421721 -65.927604 27.907842 0.000000 0.000000 0.000000 25.968767 -0.372385 -1.058784 57.427148 7.519516 -5.186054 36.392865 60.932385 27.115620 0.000000 0.000000 0.000000 
0.000055 0.917461 0.007697 -0.413032 -6.946520 -5.147768 -3.156097 -1.144887 -9.614787 -7.351815 2.411197 26.226789 2.932615 6.718723 2.047051 0.000000 0.000000 0.000000 -0.662984 2.198160 -20.612120 4.187218 2.255355 57.808274 -3.856146 -10.981096 4.553896 0.000000 0.000000 0.000000 6.670195 -1.329456 15.632305 -7.647311 2.494226 -22.059753 -3.172511 5.732681 31.015325 8.997018 -3.247353 -28.173575 0.000000 0.000000 0.000000 -16.900510 -11.234981 4.773395 -47.599621 -6.691520 -5.704396 -38.016067 -66.556529 30.115929 0.000000 0.000000 0.000000 25.882108 -0.511526 -1.182524 57.364755 7.745179 -5.100028 37.039158 61.213194 27.684145 0.000000 0.000000 0.000000 
0.000191 0.915863 0.008130 -0.196174 -7.133741 -5.075766 -3.350944 -1.215245 -10.088950 -7.469889 2.531927 26.883474 3.067193 6.963548 1.957308 0.000000 0.000000 0.000000 -0.688498 2.250772 -21.027283 3.995892 2.491789 58.226808 -3.941835 -11.099387 4.270216 0.000000 0.000000 0.000000 6.738225 -1.350916 15.874276 -7.738572 2.525022 -21.907961 -3.371997 5.837701 30.981626 8.530611 -2.944708 -28.339519 0.000000 0.000000 0.000000 -16.247381 -11.218863 4.741022 -47.581258 -6.790729 -5.664057 -38.574697 -66.920990 30.727266 0.000000 0.000000 0.000000 25.194631 -0.428865 -1.095111 57.492567 7.956272 -4.988548 36.973286 60.717779 27.356081 0.000000 0.000000 0.000000 
0.000426 0.914714 0.008569 0.089388 -7.159519 -5.019856 -3.733848 -1.279005 -10.328639 -7.415223 2.541474 27.171564 3.148592 7.093881 1.813658 0.000000 0.000000 0.000000 -0.758361 2.219495 -20.862851 3.546054 2.808400 58.029521 -3.920969 -10.885196 3.634442 0.000000 0.000000 0.000000 6.956970 -1.381894 15.937136 -8.006504 2.617221 -21.478330 -3.576027 6.019967 30.884672 8.226073 -2.682204 -28.652201 0.000000 0.000000 0.000000 -16.059669 -11.331255 4.746989 -47.422004 -6.993336 -5.547397 -37.263818 -67.111252 29.811795 0.000000 0.000000 0.000000 24.606767 -0.301289 -0.930058 57.308787 8.229386 -4.838458 36.423137 60.160961 26.714563 0.000000 0.000000 0.000000 
0.000824 0.913320 0.008890 0.305885 -7.193858 -5.070197 -3.795961 -1.300182 -10.454000 -7.762680 2.707203 27.444065 3.184808 7.128420 1.643532 0.000000 0.000000 0.000000 -1.049169 2.114575 -20.376059 2.982599 3.166083 57.431340 -3.999556 -10.761691 2.555485 0.000000 0.000000 0.000000 7.065297 -1.399542 16.038021 -8.041502 2.651737 -20.924915 -3.754573 6.453243 30.907028 7.972428 -2.424380 -28.898197 0.000000 0.000000 0.000000 -15.876327 -11.429022 4.695185 -47.566449 -7.571667 -5.325117 -36.575557 -67.147265 29.227799 0.000000 0.000000 0.000000 23.630752 0.007761 -0.558967 57.519406 8.522820 -4.712437 35.614206 59.152877 25.775561 0.000000 0.000000 0.000000 
